<?xml version="1.0" standalone="no"?>
<!DOCTYPE svg PUBLIC "-//W3C//DTD SVG 20010904//EN"
 "http://www.w3.org/TR/2001/REC-SVG-20010904/DTD/svg10.dtd">
<svg version="1.0" xmlns="http://www.w3.org/2000/svg"
 width="1000.000000pt" height="1000.000000pt" viewBox="0 0 1000.000000 1000.000000"
 preserveAspectRatio="xMidYMid meet">

<g transform="translate(0.000000,1000.000000) scale(0.100000,-0.100000)"
fill="#000000" stroke="none">
<path d="M4550 9135 c-48 -26 -49 -36 -50 -421 0 -351 1 -362 21 -388 29 -37
89 -37 119 1 20 26 21 33 18 404 -2 251 -7 382 -14 389 -20 20 -69 28 -94 15z"/>
<path d="M5348 9116 c-16 -23 -18 -59 -18 -401 l0 -376 26 -25 c21 -22 31 -25
62 -19 73 13 72 5 72 420 0 278 -3 376 -13 395 -10 21 -20 25 -62 28 -43 2
-52 -1 -67 -22z"/>
<path d="M3570 8938 c-24 -40 -23 -48 36 -223 71 -213 164 -514 164 -531 0
-28 47 -64 82 -64 39 1 64 17 76 51 10 24 7 35 -62 249 -14 41 -41 129 -61
195 -109 358 -108 355 -175 355 -35 0 -43 -5 -60 -32z"/>
<path d="M6308 8943 c-24 -28 -23 -26 -103 -299 -104 -350 -125 -425 -125
-450 0 -30 44 -67 79 -67 48 0 83 41 94 109 3 17 18 76 35 130 168 550 166
541 127 573 -34 26 -86 28 -107 4z"/>
<path d="M2742 8569 c-13 -5 -30 -25 -38 -45 l-15 -36 97 -156 c54 -86 140
-227 192 -312 120 -197 129 -209 160 -221 31 -12 78 4 92 32 25 45 11 74 -186
390 -108 173 -203 321 -212 330 -22 22 -61 29 -90 18z"/>
<path d="M7212 8571 c-17 -4 -49 -47 -108 -141 -46 -74 -108 -173 -138 -220
-29 -47 -73 -119 -99 -160 -25 -41 -57 -94 -71 -116 -30 -48 -32 -71 -10 -102
42 -60 105 -46 155 33 19 30 58 92 87 137 30 46 74 117 99 158 25 41 79 127
119 191 43 68 74 127 74 142 0 30 -35 73 -65 80 -11 3 -30 2 -43 -2z"/>
<path d="M4625 8220 c-38 -4 -89 -13 -111 -19 -23 -6 -54 -13 -70 -14 -117
-14 -544 -142 -689 -207 -22 -10 -69 -30 -105 -45 -141 -59 -381 -197 -434
-251 -16 -16 -20 -15 -59 4 -59 30 -107 36 -170 22 -87 -20 -175 -108 -193
-194 -8 -37 -6 -100 5 -127 9 -24 6 -29 -33 -57 -91 -66 -365 -387 -471 -553
-5 -8 -35 -53 -66 -100 -81 -121 -101 -156 -189 -334 -92 -188 -169 -373 -185
-449 -3 -11 -11 -40 -19 -65 -29 -87 -81 -340 -106 -508 -15 -105 -12 -536 5
-673 13 -112 36 -231 75 -395 19 -81 90 -304 120 -380 168 -422 483 -885 818
-1203 126 -121 343 -291 488 -385 l71 -46 6 -93 c9 -151 57 -246 161 -317 99
-68 246 -89 367 -52 50 16 79 33 126 76 34 30 64 55 67 55 3 0 6 -142 6 -316
0 -197 4 -332 11 -359 14 -54 67 -118 123 -148 38 -20 57 -22 256 -25 145 -3
227 0 254 8 72 22 112 55 145 121 l31 62 0 272 c0 150 3 293 6 319 l7 46 83 0
84 0 0 -319 c0 -176 4 -322 9 -325 4 -3 11 -19 14 -35 8 -39 57 -93 110 -123
40 -21 54 -23 249 -26 169 -3 218 0 263 13 67 19 125 68 156 133 23 46 23 52
21 407 -1 213 2 349 7 333 10 -30 47 -86 71 -106 8 -7 43 -27 78 -44 145 -70
321 -39 433 79 63 64 97 135 105 217 l7 67 121 60 c207 104 489 295 663 451
54 48 320 314 348 348 62 74 234 312 292 402 159 249 298 579 366 868 60 251
78 405 84 705 l5 270 75 115 c115 177 258 474 430 895 25 61 56 134 69 163 13
29 24 55 24 57 0 2 14 35 31 72 17 38 37 84 44 103 7 19 23 58 35 85 46 102
50 113 50 132 0 27 -37 63 -64 63 -24 0 -82 -26 -334 -146 -73 -35 -135 -64
-138 -64 -10 0 -506 -247 -572 -285 -59 -34 -82 -38 -82 -13 0 25 -178 301
-263 408 -7 8 -23 31 -37 50 -119 173 -427 477 -665 658 -52 39 -248 168 -297
195 -25 14 -64 37 -85 50 -69 44 -234 123 -353 170 -111 44 -348 124 -389 132
-11 2 -53 12 -93 23 -314 83 -477 102 -848 101 -157 -1 -316 -5 -355 -9z m850
-179 c426 -76 827 -217 1155 -407 295 -170 631 -452 842 -704 119 -143 188
-230 188 -236 0 -3 20 -34 44 -68 60 -84 177 -277 174 -286 -2 -4 -48 -38
-103 -75 -182 -123 -326 -251 -496 -441 -43 -49 -204 -257 -226 -294 -100
-163 -196 -344 -235 -442 -40 -101 -94 -260 -103 -308 -2 -8 -4 -16 -4 -17 -1
-2 -2 -6 -2 -10 -1 -5 -8 -28 -15 -53 -8 -27 -14 -93 -14 -166 l0 -120 -31
-35 c-17 -19 -49 -58 -71 -86 -22 -29 -42 -53 -43 -53 -1 0 -15 19 -30 43
-119 182 -385 243 -570 131 -39 -23 -70 -34 -96 -34 l-38 0 40 65 c39 64 39
65 39 172 1 100 3 110 26 138 25 30 25 30 42 10 30 -34 154 -140 212 -180 42
-30 67 -40 107 -43 77 -7 111 18 169 126 25 48 107 194 182 325 152 269 161
296 123 382 -11 26 -21 49 -21 50 0 1 22 5 49 7 204 20 330 260 235 449 -44
89 -116 148 -195 163 -19 3 -47 19 -62 34 l-27 28 26 49 c33 65 28 93 -42 235
-115 233 -297 576 -318 598 -56 62 -141 70 -214 20 -42 -28 -121 -93 -192
-155 -33 -30 -40 -29 -79 12 l-33 36 6 92 c14 202 18 327 12 351 -10 40 -60
90 -113 114 -42 19 -389 131 -499 161 -53 14 -113 14 -141 -2 -33 -19 -57 -55
-92 -142 -18 -44 -38 -93 -46 -110 -7 -16 -19 -47 -26 -67 -15 -43 -25 -48
-35 -15 -4 12 -19 49 -34 82 -15 33 -38 89 -51 125 -15 40 -37 78 -61 102 -34
34 -44 38 -87 38 -27 0 -68 -7 -92 -16 -78 -28 -323 -106 -347 -110 -12 -3
-62 -23 -110 -45 -144 -67 -162 -106 -139 -310 9 -74 18 -159 21 -190 l6 -57
-46 -37 -45 -37 -27 24 c-40 35 -139 109 -204 153 -52 34 -62 37 -111 33 -81
-7 -106 -30 -180 -171 -35 -67 -104 -196 -153 -287 -139 -259 -167 -322 -159
-368 3 -21 13 -51 21 -67 13 -25 12 -31 -6 -60 -16 -26 -30 -35 -63 -40 -100
-17 -201 -102 -232 -197 -44 -131 5 -286 113 -362 45 -31 123 -56 175 -56 20
0 37 -2 37 -5 0 -3 -9 -22 -20 -42 -25 -47 -25 -106 -1 -159 65 -142 352 -624
392 -658 41 -35 92 -43 137 -22 47 23 139 93 243 185 53 47 64 49 96 19 21
-20 23 -29 23 -138 0 -115 0 -117 34 -173 l35 -57 -49 0 c-27 0 -52 5 -55 10
-11 17 -87 52 -145 66 -226 54 -445 -81 -508 -313 -14 -51 -18 -89 -14 -153
l4 -85 -84 -85 c-92 -92 -159 -201 -198 -320 -32 -95 -39 -306 -15 -398 38
-144 101 -254 211 -368 l69 -72 -3 -111 c-4 -129 6 -127 -122 -33 -309 228
-587 517 -786 817 -238 359 -376 669 -459 1035 -53 234 -60 312 -60 655 1 309
1 310 33 470 32 157 75 330 92 370 5 11 16 40 24 65 73 228 226 519 415 791
35 50 72 99 82 108 11 8 19 19 19 24 0 12 161 198 265 306 l91 93 47 -16 c60
-20 127 -13 189 21 91 49 132 118 130 213 l-1 66 112 69 c125 78 125 78 257
145 144 74 317 146 405 170 17 5 68 20 115 34 127 37 230 63 280 70 25 4 65
11 90 17 100 22 219 27 515 24 262 -2 329 -6 430 -24z m-2392 -509 c56 -59 21
-142 -59 -142 -80 0 -104 110 -35 153 38 24 64 21 94 -11z m1619 -98 c35 -60
79 -194 66 -198 -7 -2 -65 -16 -128 -32 -63 -15 -122 -31 -130 -35 -8 -4 -42
-18 -75 -29 -33 -12 -102 -44 -153 -71 -63 -34 -94 -45 -97 -37 -8 25 -26 248
-21 256 11 17 472 182 500 179 11 -1 28 -16 38 -33z m758 -40 c107 -36 213
-75 235 -87 38 -21 40 -26 39 -67 -2 -83 -16 -215 -24 -224 -5 -5 -22 2 -39
17 -64 54 -252 132 -430 178 -63 16 -116 31 -118 33 -6 5 29 110 55 168 31 69
12 70 282 -18z m-268 -329 c412 -105 725 -356 900 -721 61 -127 67 -143 84
-220 48 -218 55 -356 25 -529 -31 -177 -93 -331 -195 -484 -161 -241 -347
-381 -639 -480 -165 -56 -222 -66 -402 -66 -268 0 -402 28 -600 127 -368 184
-605 497 -685 907 -27 139 -23 275 15 466 37 190 97 325 216 491 130 181 267
296 473 398 128 62 185 82 325 111 62 13 116 27 120 31 14 15 265 -7 363 -31z
m-1475 -256 c48 -39 96 -77 106 -84 16 -11 13 -19 -46 -97 -53 -71 -143 -236
-185 -340 -8 -20 -23 -30 -54 -39 -24 -7 -85 -25 -136 -41 -51 -17 -99 -27
-107 -24 -41 15 -29 50 120 332 170 321 194 364 205 364 5 0 49 -32 97 -71z
m2610 -34 c30 -55 106 -202 170 -326 100 -196 113 -229 104 -248 -14 -26 -22
-26 -91 -2 -30 10 -90 29 -132 42 l-77 24 -51 110 c-28 61 -84 162 -124 225
l-73 115 45 40 c69 61 156 125 166 122 5 -2 33 -48 63 -102z m2528 -325 c-48
-116 -113 -268 -144 -338 l-58 -126 -54 -11 c-57 -12 -156 -49 -294 -110 -16
-7 -61 -25 -100 -40 -93 -35 -133 -63 -146 -103 -14 -42 -8 -57 30 -77 28 -14
35 -14 83 1 29 10 62 23 73 31 11 7 28 13 38 13 9 0 44 14 77 30 33 17 62 30
65 30 3 -1 35 8 71 20 36 11 68 20 71 20 5 0 -77 -154 -139 -258 -65 -109 -92
-139 -131 -147 -17 -4 -86 -24 -152 -45 -66 -21 -174 -55 -240 -75 -156 -48
-192 -80 -164 -148 7 -18 20 -39 30 -47 40 -36 133 -116 147 -126 12 -9 9 -15
-19 -37 -52 -39 -194 -109 -288 -141 -79 -28 -85 -28 -115 -13 -74 37 -148 47
-214 28 -24 -7 -32 -6 -32 3 0 41 291 404 529 661 31 33 67 74 81 90 104 124
183 211 314 345 83 86 187 194 230 240 140 150 531 548 535 545 2 -2 -36 -99
-84 -215z m-281 68 c-10 -13 -89 -95 -175 -183 -270 -276 -473 -489 -570 -600
-24 -27 -100 -112 -169 -189 -69 -76 -145 -162 -169 -190 -37 -43 -101 -115
-209 -235 -13 -14 -45 -49 -70 -76 -26 -28 -74 -80 -106 -115 -82 -89 -235
-248 -245 -254 -21 -14 49 239 95 342 75 166 143 297 191 370 l58 87 5 -112
c6 -128 14 -144 75 -146 30 -1 42 5 60 27 31 38 35 71 35 281 l0 180 56 60
c128 139 144 155 149 155 3 0 5 -54 3 -119 -2 -105 0 -122 16 -140 24 -27 60
-27 102 0 19 11 35 21 35 22 1 1 7 90 13 197 l11 195 155 96 c177 110 228 138
470 261 96 48 179 93 184 98 19 19 19 10 0 -12z m-5039 -465 c-19 -101 -25
-169 -24 -298 0 -112 5 -158 23 -228 13 -50 18 -86 12 -84 -6 2 -55 19 -108
36 -54 18 -98 36 -98 41 0 5 6 15 14 22 7 8 24 34 37 59 20 37 24 59 24 134 0
107 -19 156 -84 223 -24 24 -40 46 -38 49 5 4 224 79 241 82 4 0 5 -16 1 -36z
m3043 -47 c2 -3 -12 -19 -32 -36 -121 -107 -137 -295 -35 -424 26 -34 24 -36
-76 -67 -38 -12 -76 -27 -83 -32 -22 -17 -23 -2 -5 64 24 88 25 437 2 516 -9
29 -14 55 -12 57 5 4 232 -70 241 -78z m-3381 -135 c71 -52 93 -138 52 -211
-24 -42 -82 -80 -123 -80 -87 0 -165 95 -152 185 18 118 131 172 223 106z
m3609 8 c50 -31 74 -77 74 -142 0 -49 -4 -61 -31 -92 -85 -96 -178 -84 -234
29 -22 45 -26 63 -20 93 10 54 32 88 74 112 46 26 95 27 137 0z m-3365 -567
c46 -17 105 -36 131 -42 43 -11 49 -17 75 -68 15 -31 67 -114 114 -186 62 -94
83 -134 75 -141 -55 -54 -201 -165 -213 -163 -19 4 -343 565 -343 594 0 52 32
53 161 6z m3151 21 c10 -9 18 -21 18 -28 0 -6 -31 -65 -68 -131 -37 -65 -108
-191 -156 -279 -49 -88 -94 -166 -102 -174 -11 -12 -17 -11 -43 10 -16 13 -60
49 -98 80 -108 89 -106 72 -22 202 41 62 88 140 104 174 34 70 26 65 220 127
131 41 124 40 147 19z m1568 -161 c0 -4 -25 -32 -54 -61 l-55 -54 -35 24 c-20
13 -36 29 -36 35 0 5 31 18 68 28 38 10 75 22 83 27 17 11 29 11 29 1z m116
-276 c-17 -300 -33 -407 -90 -621 -114 -421 -297 -766 -602 -1135 -46 -56
-303 -311 -374 -371 -36 -31 -99 -81 -140 -112 -41 -32 -79 -60 -85 -65 -75
-57 -401 -252 -422 -252 -4 0 -9 175 -10 390 -2 225 -7 409 -13 436 -15 65
-57 148 -102 199 -21 24 -38 46 -38 49 0 4 12 25 26 47 l25 41 58 -55 c67 -64
109 -87 212 -116 97 -27 255 -26 364 2 107 28 286 140 355 223 81 98 176 296
194 404 3 19 10 60 16 90 6 30 10 91 9 135 0 50 5 96 15 123 26 71 14 183 -28
283 -5 12 0 18 19 23 57 14 234 110 329 179 56 39 139 110 186 157 64 64 87
82 94 71 4 -7 5 -63 2 -125z m-1166 -169 c0 -2 -10 -12 -22 -23 l-23 -19 19
23 c18 21 26 27 26 19z m-83 -99 c-13 -18 -37 -60 -53 -93 -16 -32 -73 -125
-128 -205 -55 -80 -171 -251 -258 -380 -86 -129 -162 -242 -168 -250 -6 -8
-33 -49 -61 -90 -29 -41 -64 -93 -79 -115 -15 -22 -67 -101 -116 -175 -126
-194 -141 -212 -165 -199 -20 10 -20 11 7 57 15 26 66 106 114 177 47 72 90
137 93 145 8 17 8 17 143 216 263 387 263 387 412 590 154 208 268 354 278
354 3 0 -6 -15 -19 -32z m370 -9 c72 -27 132 -119 133 -202 0 -63 -18 -104
-68 -149 -66 -60 -179 -65 -255 -11 -78 54 -111 174 -72 257 42 89 170 140
262 105z m-3147 -101 c0 -32 -3 -58 -7 -58 -19 1 -48 59 -53 106 l-6 51 33
-21 c31 -20 33 -25 33 -78z m1470 49 c0 -44 -5 -58 -30 -87 l-29 -35 -1 70 c0
66 2 71 28 87 15 10 28 18 30 18 1 0 2 -24 2 -53z m-210 -117 l0 -70 -561 0
-561 0 5 60 c5 66 10 78 29 63 21 -15 166 -61 251 -78 114 -23 332 -30 457
-15 97 11 247 52 340 94 19 8 36 15 38 16 1 0 2 -31 2 -70z m-1697 -148 c22
-6 50 -20 63 -33 22 -20 24 -30 24 -111 0 -48 -1 -88 -3 -88 -2 0 -25 7 -51
16 -100 34 -220 0 -309 -88 -26 -26 -50 -48 -52 -48 -9 0 -5 94 6 140 13 61
32 99 66 135 85 91 141 107 256 77z m2447 -12 c63 -33 80 -49 105 -102 20 -44
36 -178 20 -178 -3 0 -23 13 -43 30 -86 68 -218 83 -314 35 -17 -8 -32 -15
-32 -15 -1 0 1 44 2 97 4 106 10 119 65 148 44 22 138 15 197 -15z m764 -133
c-6 -16 -127 -82 -167 -91 l-29 -7 23 33 c13 18 27 38 31 43 5 6 30 38 56 73
l47 63 22 -50 c12 -28 20 -57 17 -64z m-1174 -447 l0 -520 -25 -10 c-19 -7
-41 -44 -96 -157 -112 -232 -147 -290 -179 -297 -30 -6 -40 -27 -40 -88 l0
-38 -645 0 -645 0 17 43 c12 29 18 69 17 127 0 138 -50 234 -160 311 l-42 28
3 468 c2 257 3 510 4 561 l1 92 895 0 895 0 0 -520z m1406 354 c61 -17 115
-14 197 13 27 8 50 13 52 11 2 -2 -2 -26 -8 -53 -17 -64 -48 -87 -124 -93
-114 -8 -203 43 -203 116 0 27 3 33 15 28 9 -3 41 -13 71 -22z m-1060 -120
c22 -8 49 -27 61 -42 l22 -26 -21 -38 -21 -38 -18 30 c-13 20 -29 31 -55 36
-87 16 -124 -55 -62 -120 31 -33 34 -34 60 -20 15 8 28 11 28 6 0 -10 -27 -50
-53 -79 l-20 -23 -40 23 c-77 43 -107 138 -68 216 24 45 37 57 87 75 51 19 55
19 100 0z m-2355 -17 c43 -29 69 -80 69 -137 0 -65 -26 -111 -80 -138 -79 -41
-159 -12 -199 71 -33 68 -25 135 22 186 29 31 52 40 108 40 32 1 56 -6 80 -22z
m3123 0 c-17 -22 -64 -36 -64 -19 0 8 57 40 73 41 4 1 0 -9 -9 -22z m314 -146
c29 -6 72 -8 94 -4 46 7 46 9 -4 -64 -16 -24 -38 -48 -49 -54 -32 -17 -110 6
-157 46 -48 42 -66 83 -58 129 l7 34 57 -38 c32 -21 80 -43 110 -49z m-508 24
c0 -7 -3 -15 -7 -19 -13 -13 -17 -42 -17 -127 1 -71 5 -94 27 -137 14 -29 23
-52 18 -52 -27 0 -102 35 -124 58 -31 32 -47 100 -40 164 5 41 47 135 67 150
12 8 76 -23 76 -37z m-3320 -60 c0 -36 24 -89 65 -145 48 -66 44 -73 -12 -20
-59 55 -77 66 -131 75 -23 4 -44 10 -47 15 -4 7 103 99 118 100 4 0 7 -11 7
-25z m3510 -8 c0 -38 68 -129 137 -182 l42 -32 -34 -16 c-91 -43 -135 -30
-185 58 -41 72 -43 142 -2 167 34 20 42 21 42 5z m-3605 -247 c51 -22 105 -72
105 -96 0 -10 -6 -11 -26 -4 -49 19 -158 7 -237 -25 -16 -7 -17 -3 -11 36 4
24 16 61 27 83 19 36 23 38 56 33 20 -2 59 -14 86 -27z m2665 18 c18 -11 18
-14 2 -40 -22 -38 -27 -35 -27 12 0 45 -1 44 25 28z m-2120 -178 l0 -180 -39
0 c-45 0 -132 33 -180 68 -60 45 -76 118 -40 186 33 62 55 75 129 76 36 1 79
7 95 15 17 7 31 14 33 14 1 1 2 -80 2 -179z m2459 -141 l36 -64 0 -520 0 -520
-25 -49 c-14 -28 -42 -64 -63 -80 -35 -28 -44 -30 -121 -31 -91 0 -125 12
-153 54 -16 23 -18 58 -21 293 l-3 267 -24 19 -24 19 92 104 c50 57 119 133
153 168 44 45 60 69 57 82 -5 17 -30 38 -107 91 -12 8 144 240 158 235 5 -2
26 -32 45 -68z m-2901 38 l23 -13 -27 -13 c-74 -33 -135 -105 -175 -206 l-17
-40 -27 60 c-38 87 -52 142 -39 163 30 48 205 80 262 49z m159 -148 l28 -11
-25 -21 c-80 -68 -131 -194 -120 -294 3 -29 3 -53 -1 -53 -17 0 -62 46 -80 83
-47 91 -18 186 79 262 60 48 74 51 119 34z m2363 -119 c3 -4 20 -15 38 -24 21
-11 30 -21 25 -29 -9 -16 -137 -170 -185 -224 l-37 -42 -41 30 c-33 24 -40 34
-35 52 8 25 62 133 112 224 l35 63 41 -22 c23 -11 44 -24 47 -28z m-2015 16
c158 -74 194 -252 76 -367 -56 -54 -116 -74 -194 -66 -68 7 -115 35 -158 94
-29 41 -34 58 -37 116 -5 85 15 144 65 188 74 65 160 77 248 35z m1737 -437
c27 -18 47 -37 45 -43 -2 -6 -23 -25 -48 -43 -24 -18 -59 -44 -77 -59 l-33
-27 6 29 c4 16 11 43 15 59 5 17 12 49 15 73 4 23 12 42 18 42 5 0 32 -14 59
-31z m-2112 -60 c82 -55 202 -99 273 -99 l38 0 -3 -189 c-3 -212 -4 -213 -82
-253 -33 -17 -53 -20 -116 -16 -107 6 -154 33 -194 113 l-31 60 -3 228 -3 228
48 -27 c26 -15 59 -35 73 -45z m1087 -63 l28 -24 3 -296 3 -295 -251 -3 c-139
-2 -254 -1 -256 1 -2 2 -4 148 -4 323 l0 318 224 0 c223 0 225 0 253 -24z
m363 -171 l0 -195 -90 0 -89 0 -3 195 -3 195 93 0 92 0 0 -195z m405 160 c-11
-52 -64 -197 -90 -243 -31 -55 -31 -79 -3 -109 42 -45 46 -42 263 142 33 28
68 56 77 64 16 12 17 -4 16 -223 l-1 -236 -259 0 -258 0 0 320 0 321 130 -3
131 -2 -6 -31z m412 -317 c-1 -62 -3 -12 -3 112 0 124 2 174 3 113 2 -62 2
-164 0 -225z m-1147 -525 l0 -83 -26 11 c-15 5 -95 11 -178 13 -169 3 -210 -6
-226 -50 -13 -34 -5 -58 27 -84 23 -18 41 -20 167 -21 151 -1 182 -9 213 -56
14 -21 13 -25 -16 -54 l-31 -31 -188 7 c-103 4 -194 9 -203 11 -9 3 -26 27
-38 54 -18 42 -21 68 -21 203 0 84 3 157 8 161 4 4 121 6 260 5 l252 -4 0 -82z
m986 74 c4 -3 9 -38 12 -77 l5 -71 -29 11 c-17 7 -103 10 -220 9 -162 -1 -198
-4 -233 -20 l-41 -18 0 91 0 90 250 -4 c137 -2 252 -7 256 -11z m-10 -311 c26
-22 27 -25 14 -55 -7 -17 -21 -36 -32 -42 -20 -11 -396 -13 -423 -3 -19 8 -31
53 -18 72 5 8 24 23 43 34 30 15 59 18 212 18 171 0 178 -1 204 -24z"/>
<path d="M5011 6964 c-44 -55 -15 -104 71 -124 159 -35 357 -122 473 -205 270
-195 430 -523 420 -859 -6 -183 -20 -245 -85 -381 -103 -213 -263 -382 -455
-479 -56 -28 -242 -98 -253 -95 -1 0 -28 -5 -59 -11 -88 -19 -350 -8 -445 18
-329 89 -555 281 -689 584 -58 130 -79 240 -77 406 l2 145 -29 24 c-51 45
-108 9 -121 -76 -4 -24 -4 -105 -1 -180 4 -106 11 -156 32 -226 101 -347 302
-592 614 -750 33 -17 159 -63 191 -70 8 -1 34 -8 56 -14 63 -17 98 -21 233
-28 388 -19 764 155 1005 465 138 178 246 483 246 692 -1 160 -54 389 -121
523 -63 125 -135 224 -239 328 -159 159 -316 245 -580 318 -107 30 -163 28
-189 -5z"/>
<path d="M4635 6955 c-168 -50 -327 -126 -430 -207 -132 -103 -253 -255 -337
-424 -42 -84 -49 -108 -44 -136 6 -33 45 -67 74 -62 6 1 17 2 22 3 20 2 54 52
82 119 56 130 178 284 298 377 113 87 275 161 438 200 39 9 83 26 97 37 29 23
33 62 9 96 -13 18 -24 22 -72 21 -31 0 -93 -11 -137 -24z"/>
<path d="M5865 6630 c10 -11 20 -20 23 -20 3 0 -3 9 -13 20 -10 11 -20 20 -23
20 -3 0 3 -9 13 -20z"/>
<path d="M4416 6597 c-110 -59 -243 -199 -318 -337 -54 -99 -63 -133 -42 -165
9 -14 27 -28 40 -31 34 -9 91 30 116 80 33 66 102 168 144 212 43 46 123 104
170 122 56 23 74 91 34 127 -32 29 -79 26 -144 -8z"/>
<path d="M4305 5998 c-75 -27 -117 -82 -130 -170 -8 -54 15 -117 60 -162 94
-94 254 -66 315 54 35 71 31 132 -14 207 -39 64 -152 99 -231 71z"/>
<path d="M5458 6000 c-79 -23 -133 -104 -132 -200 1 -138 135 -226 267 -175
83 32 144 123 132 197 -14 82 -63 148 -130 173 -30 11 -106 14 -137 5z"/>
<path d="M4773 5678 c-31 -15 -47 -60 -39 -111 9 -58 37 -101 87 -134 39 -25
51 -28 128 -28 61 1 95 6 117 18 31 16 104 93 102 106 -1 3 2 14 7 24 4 9 4
37 1 62 -8 50 -34 75 -78 75 -39 0 -84 -52 -72 -83 8 -21 -34 -47 -74 -47 -44
0 -72 16 -72 41 0 28 -26 75 -45 83 -22 8 -36 7 -62 -6z"/>
<path d="M3069 5791 c-37 -37 -37 -55 1 -93 33 -32 60 -33 108 -2 39 25 26 85
-25 112 -34 18 -52 14 -84 -17z"/>
<path d="M6697 5790 c-40 -47 -24 -101 35 -115 22 -6 33 -1 58 23 16 17 30 39
30 50 0 29 -31 61 -66 68 -26 5 -35 1 -57 -26z"/>
<path d="M7265 4538 c-45 -24 -65 -59 -65 -111 0 -44 4 -54 34 -82 44 -41 82
-47 136 -21 127 59 92 227 -47 226 -21 0 -47 -6 -58 -12z"/>
<path d="M4180 4150 c-44 -44 -13 -130 48 -130 54 1 91 53 71 101 -21 51 -82
66 -119 29z"/>
<path d="M5631 4144 c-28 -35 -26 -69 4 -99 32 -33 60 -31 96 4 35 36 37 64 4
96 -33 34 -77 33 -104 -1z"/>
<path d="M4538 3981 c-103 -5 -119 -9 -141 -29 -47 -44 -48 -62 -45 -624 l3
-528 38 -37 37 -38 506 -3 c497 -2 507 -2 550 18 26 13 53 36 66 58 l23 37 -3
520 c-3 461 -5 524 -20 554 -35 72 -20 70 -482 75 -228 2 -468 1 -532 -3z
m851 -147 l31 -7 -2 -476 -3 -476 -455 0 -455 0 -2 465 c-1 256 0 473 3 483 5
16 34 17 428 17 233 0 438 -3 455 -6z"/>
<path d="M4695 3728 c-32 -18 -45 -41 -39 -68 10 -48 20 -50 301 -50 250 0
264 1 283 20 27 27 25 56 -5 85 l-24 25 -248 0 c-168 -1 -254 -4 -268 -12z"/>
<path d="M4695 3518 c-48 -26 -59 -74 -25 -108 19 -19 33 -20 288 -20 248 0
270 1 285 18 24 27 21 69 -8 97 l-24 25 -248 0 c-160 -1 -255 -4 -268 -12z"/>
<path d="M4793 3311 c-97 -5 -114 -9 -127 -26 -22 -29 -19 -58 7 -83 23 -21
30 -22 285 -22 249 0 263 1 282 20 32 32 23 91 -16 109 -26 11 -221 12 -431 2z"/>
<path d="M4675 3075 c-14 -13 -25 -29 -25 -35 0 -16 21 -53 34 -62 6 -4 129
-8 274 -8 253 0 263 1 283 21 16 16 20 28 15 53 -11 55 -17 56 -298 56 l-259
0 -24 -25z"/>
<path d="M3712 3847 c-38 -41 -25 -95 28 -117 28 -11 34 -11 58 7 38 28 43 94
10 117 -32 23 -71 20 -96 -7z"/>
<path d="M3825 2904 c-47 -24 -84 -65 -91 -99 -14 -76 41 -164 117 -187 98
-29 204 92 170 194 -31 90 -120 132 -196 92z m65 -129 c0 -26 -14 -33 -25 -15
-9 14 1 40 15 40 5 0 10 -11 10 -25z"/>
<path d="M2010 8037 c-34 -17 -55 -57 -46 -90 6 -25 55 -78 418 -450 105 -109
106 -110 145 -104 23 4 47 16 61 32 41 48 32 66 -105 209 -296 306 -409 416
-428 416 -11 0 -31 -6 -45 -13z"/>
<path d="M7860 7972 c-41 -43 -142 -150 -225 -237 -82 -87 -166 -174 -186
-194 -69 -70 -79 -125 -29 -161 52 -37 80 -22 210 109 206 209 405 422 417
445 15 29 2 82 -24 102 -10 7 -34 14 -53 14 -30 0 -44 -10 -110 -78z"/>
<path d="M8540 7362 c-19 -10 -85 -56 -146 -103 -183 -139 -369 -283 -374
-289 -3 -3 -22 -18 -43 -33 -59 -45 -77 -68 -77 -103 0 -48 30 -79 76 -79 35
0 58 15 199 124 88 68 176 136 195 152 19 16 86 67 147 114 145 110 155 121
148 160 -7 34 -47 75 -73 75 -10 0 -33 -8 -52 -18z"/>
<path d="M1785 7074 c-34 -37 -33 -83 3 -116 15 -14 59 -47 97 -73 39 -27 95
-66 125 -89 65 -48 106 -52 145 -16 17 16 25 34 25 57 0 36 -11 50 -80 101
-25 18 -84 62 -132 97 -102 76 -141 84 -183 39z"/>
<path d="M1047 6672 c-21 -23 -25 -64 -9 -94 7 -13 54 -46 105 -74 51 -28 148
-84 217 -124 69 -40 159 -91 200 -113 41 -22 108 -60 148 -84 88 -52 122 -55
163 -14 33 34 37 69 12 99 -15 18 -172 110 -383 225 -30 16 -123 67 -207 113
-163 90 -212 104 -246 66z"/>
<path d="M9229 5831 c-49 -49 -33 -124 31 -151 38 -16 70 -7 104 27 21 21 26
34 23 60 -12 88 -99 123 -158 64z"/>
<path d="M813 5778 c-27 -13 -47 -60 -39 -92 7 -27 45 -55 84 -62 15 -3 142
-34 282 -69 226 -56 313 -77 330 -80 3 0 10 -3 15 -6 15 -10 97 -23 120 -20
29 3 65 48 65 81 0 38 -46 76 -102 85 -24 4 -81 17 -128 30 -147 41 -533 136
-570 140 -19 2 -45 -1 -57 -7z"/>
<path d="M733 5060 c-31 -12 -46 -46 -39 -85 13 -66 9 -65 474 -65 407 0 419
1 440 20 33 31 30 92 -4 119 -26 21 -37 21 -438 20 -226 0 -421 -4 -433 -9z"/>
<path d="M8565 5058 c-28 -16 -35 -28 -35 -66 0 -22 8 -41 25 -58 l25 -25 425
3 c471 3 450 0 462 70 4 30 1 41 -20 62 l-26 26 -418 0 c-293 -1 -424 -4 -438
-12z"/>
<path d="M8533 4585 c-35 -15 -49 -48 -39 -91 8 -31 50 -50 155 -69 42 -8 175
-35 296 -61 296 -62 379 -73 413 -53 18 9 28 25 30 43 8 70 -21 98 -113 109
-65 9 -107 16 -180 32 -33 7 -103 22 -155 33 -115 25 -357 72 -368 72 -4 -1
-21 -7 -39 -15z"/>
<path d="M1475 4548 c-44 -5 -186 -25 -315 -44 -129 -20 -255 -37 -280 -38
-76 -4 -110 -34 -110 -95 0 -20 8 -36 28 -51 30 -25 45 -24 247 5 61 8 187 26
280 40 94 13 191 27 217 31 84 10 102 18 120 54 15 29 15 36 2 61 -26 51 -41
54 -189 37z"/>
<path d="M8373 4010 c-12 -5 -26 -18 -32 -29 -15 -27 -14 -86 2 -99 21 -18
233 -120 278 -135 22 -7 78 28 88 56 13 35 2 75 -28 96 -34 24 -231 111 -262
116 -13 2 -34 0 -46 -5z"/>
<path d="M1675 3957 c-22 -12 -65 -33 -95 -46 -113 -48 -402 -180 -460 -210
-19 -10 -46 -22 -59 -26 -66 -20 -97 -85 -62 -134 42 -58 45 -57 406 114 61
29 169 78 240 110 166 73 199 107 171 176 -8 19 -48 39 -79 39 -12 0 -40 -10
-62 -23z"/>
<path d="M9039 3661 c-20 -20 -29 -39 -29 -61 0 -44 47 -90 91 -90 48 0 89 42
89 92 0 83 -91 118 -151 59z"/>
<path d="M8048 3363 c-38 -24 -52 -67 -33 -103 8 -15 61 -63 117 -106 518
-391 531 -400 571 -385 39 15 59 46 55 87 -3 43 -14 53 -224 206 -65 48 -130
96 -144 107 -148 117 -290 213 -312 211 -2 0 -15 -8 -30 -17z"/>
<path d="M2000 3285 c-25 -17 -90 -62 -145 -100 -121 -83 -368 -266 -412 -306
-44 -39 -51 -70 -23 -109 51 -71 88 -55 371 165 64 49 125 96 135 102 140 93
224 156 228 170 7 25 2 64 -13 91 -18 34 -83 28 -141 -13z"/>
<path d="M7515 2715 c-52 -51 -49 -56 258 -362 256 -256 286 -283 316 -283 24
0 41 8 62 32 17 17 27 38 24 45 -3 8 -5 22 -5 30 0 15 -454 474 -529 535 -44
36 -92 37 -126 3z"/>
<path d="M2248 2493 c-207 -212 -272 -282 -280 -303 -4 -10 -3 -34 3 -53 16
-58 93 -74 137 -29 256 267 379 399 389 416 27 49 -14 106 -77 106 -35 0 -46
-9 -172 -137z"/>
<path d="M7013 2300 c-26 -10 -43 -39 -43 -72 0 -13 28 -69 61 -123 34 -55 73
-119 88 -143 140 -227 237 -374 252 -382 10 -6 31 -10 47 -10 39 0 86 52 76
84 -9 27 -177 306 -297 493 -70 109 -99 145 -121 153 -34 12 -34 12 -63 0z"/>
<path d="M3140 1999 c-16 -18 -30 -37 -30 -43 0 -6 -25 -72 -55 -146 -30 -74
-55 -137 -55 -141 0 -4 -16 -42 -35 -84 -49 -106 -52 -126 -23 -158 33 -39 81
-42 116 -8 38 36 216 479 215 535 -1 75 -79 101 -133 45z"/>
<path d="M6486 1579 c-33 -26 -33 -47 5 -144 17 -44 40 -107 51 -140 25 -74
56 -106 100 -101 40 5 82 50 75 80 -18 74 -102 294 -119 309 -27 23 -79 22
-112 -4z"/>
<path d="M3774 1405 c-13 -13 -24 -29 -24 -35 0 -5 -16 -51 -36 -101 -21 -53
-34 -100 -30 -112 9 -37 30 -56 67 -62 54 -9 83 20 110 108 12 39 25 77 29 82
26 37 15 117 -18 130 -42 18 -73 15 -98 -10z"/>
</g>
</svg>
